<?xml version="1.0" encoding="UTF-8"?>
<svg id="Layer_1" xmlns="http://www.w3.org/2000/svg" xmlns:xlink="http://www.w3.org/1999/xlink" viewBox="0 0 127.75 110.48">
  <defs>
    <style>
      .cls-1 {
        fill: #5c667b;
      }

      .cls-2, .cls-3 {
        fill: #f5f6fa;
      }

      .cls-4 {
        fill: #303d66;
      }

      .cls-3 {
        filter: url(#drop-shadow-22);
        stroke: #f5f6fa;
        stroke-miterlimit: 10;
        stroke-width: 13px;
      }
    </style>
    <filter id="drop-shadow-22" x="22.86" y=".84" width="88" height="109" filterUnits="userSpaceOnUse">
      <feOffset dx="0" dy="0"/>
      <feGaussianBlur result="blur" stdDeviation="5"/>
      <feFlood flood-color="#061533" flood-opacity="1"/>
      <feComposite in2="blur" operator="in"/>
      <feComposite in="SourceGraphic"/>
    </filter>
  </defs>
  <path class="cls-3" d="M89.23,41.12c0-10.07-10.2-18.23-22.42-18.23s-22.42,8.16-22.42,18.23c0,3.16.17,6.06,1.04,8.58,3.28,15.76,13.15,31.5,19.71,37.11,1.11.95,2.74.87,3.81-.12,5.99-5.54,20.21-26.75,20.34-42.34.16-1.05-.06-2.13-.06-3.23ZM66.9,58.99c-8.42,0-15.24-6.82-15.24-15.24s6.82-15.24,15.24-15.24,15.24,6.82,15.24,15.24-6.82,15.24-15.24,15.24Z"/>
  <g>
    <path class="cls-4" d="M89.23,40.75c0-10.07-10.2-18.23-22.42-18.23-12.22,0-22.42,8.16-22.42,18.23,0,3.16.17,6.06,1.04,8.58,3.28,15.76,13.15,31.5,19.71,37.11,1.11.95,2.74.87,3.81-.12,5.99-5.54,20.21-26.75,20.34-42.34.16-1.05-.06-2.13-.06-3.23ZM66.9,58.62c-8.42,0-15.24-6.82-15.24-15.24s6.82-15.24,15.24-15.24,15.24,6.82,15.24,15.24-6.82,15.24-15.24,15.24Z"/>
    <circle class="cls-2" cx="66.87" cy="43.37" r="15.32"/>
    <path class="cls-1" d="M65.42,35.33c.34.03.79,5.11.86,8.95,0,.14.04.26.13.36.87.94,6.51,6.78,6.18,7.27-.13.2-1.71-.6-4.09-2.51-1.5-1.21-2.9-2.52-4.23-3.91-.1-.11-.16-.26-.16-.41.06-3.3.85-9.5,1.31-9.75h0Z"/>
  </g>
</svg>