<?xml version="1.0" encoding="UTF-8"?>
<svg id="lines" xmlns="http://www.w3.org/2000/svg" xmlns:xlink="http://www.w3.org/1999/xlink" viewBox="0 0 369.33 98.82">
  <defs>
    <style>
      .cls-1 {
        fill: #f5f6fa;
      }

      .cls-2 {
        fill: url(#linear-gradient-2);
      }

      .cls-3 {
        fill: #a0a0c5;
      }

      .cls-4 {
        fill: url(#linear-gradient);
      }
    </style>
    <linearGradient id="linear-gradient" x1="15.49" y1="19.51" x2="366.95" y2="19.51" gradientUnits="userSpaceOnUse">
      <stop offset=".37" stop-color="#f5f6fa"/>
      <stop offset=".42" stop-color="#f5f6fa" stop-opacity=".95"/>
      <stop offset=".53" stop-color="#f6f7fa" stop-opacity=".82"/>
      <stop offset=".67" stop-color="#f8f9fb" stop-opacity=".6"/>
      <stop offset=".84" stop-color="#fbfcfd" stop-opacity=".31"/>
      <stop offset="1" stop-color="#fff" stop-opacity="0"/>
    </linearGradient>
    <linearGradient id="linear-gradient-2" x1="32.21" y1="81.49" x2="366.93" y2="81.49" xlink:href="#linear-gradient"/>
  </defs>
  <path class="cls-3" d="M37.27,49.37c0-8.37-8.48-15.15-18.63-15.15S0,41.01,0,49.37c0,2.63.14,5.04.87,7.13,2.72,13.1,10.93,26.18,16.38,30.84.92.79,2.27.73,3.16-.1,4.98-4.61,16.8-22.23,16.91-35.19.13-.88-.05-1.77-.05-2.68ZM18.7,63.8c-6.67.04-11.6-4.88-12.1-13.06-.34-5.49,5.48-11.24,12.15-11.24s12.01,5.74,12.01,11.24-3.56,13-12.06,13.06Z"/>
  <path class="cls-1" d="M18.37,46.39c.2.02.47,3.03.51,5.3,0,.08.02.15.08.21.52.55,3.85,4.01,3.66,4.3-.08.12-1.01-.35-2.42-1.49-.88-.72-1.72-1.49-2.5-2.31-.06-.06-.1-.15-.09-.24.03-1.95.5-5.62.78-5.77h0Z"/>
  <g>
    <path class="cls-1" d="M72.77,42.81c0,2.74-1.37,4.41-3.16,4.41-3.16,0-2.98-3.34-5.96-3.34-1.91,0-3.58,1.91-3.58,5.79v8.23c0,5.43,2.92,3.94,2.92,6.8,0,1.37-1.01,1.67-2.74,1.67h-9.66c-1.79,0-2.86-.42-2.86-1.73,0-2.8,2.98-1.31,2.98-6.74v-11.03c0-1.49-.89-2.39-1.85-3.22-.54-.42-1.13-.89-1.13-1.85,0-1.07.54-1.55,1.97-2.21,2.33-1.07,6.86-2.39,7.87-2.45,1.07,0,1.49.72,1.49,2.03v2.92c2.39-3.58,5.49-4.95,8.11-4.95,3.52,0,5.61,2.33,5.61,5.67Z"/>
    <path class="cls-1" d="M102.53,58.26c-1.13,3.52-6.26,8.71-14.43,8.71s-14.31-5.79-14.31-14.08c0-9.25,7.52-15.75,15.57-15.75,7.52,0,11.51,4.59,12.23,9.66.12.89-.36,1.79-1.37,2.27-5.9,2.86-10.02,4.59-15.87,6.86,1.25,2.33,3.7,4.41,7.87,4.41,3.46,0,6.2-1.79,8.35-3.82,1.31-1.25,2.56-.12,1.97,1.73ZM82.43,48.24c0,1.25.24,2.86.54,3.82,2.74-.95,5.55-1.97,8.17-3.22,1.01-.48,2.03-.83,1.49-2.62-.95-3.34-3.58-5.31-6.26-4.59-2.51.6-3.94,3.1-3.94,6.62Z"/>
    <path class="cls-1" d="M139.68,59.34c.78,3.64,3.1,3.1,3.1,5.37,0,1.37-1.07,1.67-2.74,1.67h-9.36c-1.79,0-2.86-.42-2.86-1.73,0-2.09,3.16-2.03,2.33-5.91l-1.91-9.19c-.72-3.28-1.91-6.5-5.13-6.44-2.8,0-5.01,2.56-5.01,6.74v8.05c0,5.43,2.92,3.94,2.92,6.8,0,1.37-1.01,1.67-2.74,1.67h-9.66c-1.79,0-2.86-.42-2.86-1.73,0-2.8,2.98-1.31,2.98-6.74v-11.03c0-1.49-.89-2.39-1.85-3.22-.54-.42-1.13-.89-1.13-1.85,0-1.07.54-1.55,1.97-2.21,2.33-1.07,6.86-2.39,7.87-2.45,1.07,0,1.49.72,1.49,2.03v2.92c2.21-3.28,5.61-4.95,9.42-4.95,7.22,0,9.48,4.95,11.03,12.17l2.15,10.02Z"/>
    <path class="cls-1" d="M173.86,34.23l-.12,22.61c0,4.29,3.46,3.52,3.46,5.31,0,.95-.66,1.55-2.15,2.39-1.91.95-5.79,2.27-7.58,2.27s-2.56-.95-2.74-3.7v-.54c-1.91,2.57-4.83,4.53-9.36,4.35-6.56-.18-11.51-5.25-11.51-13,0-10.86,8.59-16.76,15.21-16.76,2.15,0,3.94.42,5.37,1.07v-4c0-3.52-2.8-3.46-2.8-5.25,0-.89.54-1.37,1.97-2.03,2.39-1.13,7.81-2.92,8.83-2.92,1.07,0,1.49.72,1.49,2.03l-.06,8.17ZM164.43,54.98v-3.88c-.12-2.51-.48-4.65-1.01-5.96-1.07-2.56-2.92-3.82-5.13-3.82-3.52,0-5.55,3.22-5.55,8.53,0,6.68,2.92,11.21,6.86,11.21,2.98,0,4.53-2.5,4.83-6.08Z"/>
    <path class="cls-1" d="M208.21,58.26c-1.13,3.52-6.26,8.71-14.43,8.71s-14.32-5.79-14.32-14.08c0-9.25,7.52-15.75,15.57-15.75,7.52,0,11.51,4.59,12.23,9.66.12.89-.36,1.79-1.37,2.27-5.91,2.86-10.02,4.59-15.87,6.86,1.25,2.33,3.7,4.41,7.87,4.41,3.46,0,6.2-1.79,8.35-3.82,1.31-1.25,2.56-.12,1.97,1.73ZM188.11,48.24c0,1.25.24,2.86.54,3.82,2.74-.95,5.55-1.97,8.17-3.22,1.01-.48,2.03-.83,1.49-2.62-.95-3.34-3.58-5.31-6.26-4.59-2.5.6-3.94,3.1-3.94,6.62Z"/>
    <path class="cls-1" d="M239.64,58.08c-.24,2.03-.72,3.76-1.25,5.49-.6,1.79-1.31,2.8-3.16,2.8h-22.78c-1.79,0-2.57-1.19-1.43-2.74l15.93-21.59h-3.7c-4.12,0-7.1,2.74-9.19,4.77-.83.78-1.79,1.25-2.62.83-.95-.42-.83-1.55-.54-2.74.54-1.67,1.25-3.28,2.09-4.95.83-1.67,1.37-2.21,3.22-2.21h21.65c1.85,0,2.56,1.19,1.43,2.74l-15.93,21.59h4.83c4.12,0,6.5-2.74,8.35-5.25.66-.95,1.55-1.61,2.45-1.37,1.01.3.83,1.37.66,2.62Z"/>
  </g>
  <g>
    <path class="cls-3" d="M272.98,47.95c0-3.46-1.23-6.08-3.54-6.54-.46-.08-.85-.38-.85-1.15,0-2,2.23-4.85,5.46-4.85,4.38,0,6.38,3.54,6.38,8.08,0,9.61-11.46,23.15-19.61,23.15-5.77,0-8-6.61-8-12,0-8.54,2.38-18.07,7.31-18.07,2.61,0,4.61,1.61,4.61,4.15,0,1.38-.46,2.46-1.08,4.15-1.08,2.85-2,6.31-2,10,0,4,1.08,6.15,2.69,6.15,3.54,0,8.61-6.85,8.61-13.07Z"/>
    <path class="cls-3" d="M295.21,41.33c0,1.38-.69,2.15-1.85,4.31-2.31,4.38-3.38,8.38-3.38,11,0,2.31,1,3.15,2.08,3.15,1.46,0,3.77-.46,9-7.92.31-.46.77-.69,1.15-.69.54,0,1,.46,1,1.15,0,.38-.08.77-.38,1.31-5.77,10.38-10.92,12.84-14.92,12.84-4.54,0-6.69-3.92-6.69-8.69,0-3.54,1.08-8.46,2.62-12.3,1.92-4.77,4.15-8.77,7-8.77s4.38,2.08,4.38,4.61ZM290.67,27.95c0-3.46,3-6.23,6.61-6.23s5.15,2.61,5.15,4.84c0,3.46-3.23,5.84-6.84,5.84-2.77,0-4.92-1.85-4.92-4.46Z"/>
    <path class="cls-3" d="M325.27,51.87c.31-.46.77-.69,1.15-.69.54,0,1,.46,1,1.15,0,.38-.08.77-.38,1.31-5.77,10.38-13.15,12.84-18.23,12.84s-10.77-3.61-10.77-11c0-9.31,7.92-18.77,16.46-18.77,4.84,0,7.61,3,7.61,6.46,0,5.23-6,10.31-15.23,11.46.46,3.23,2,5.69,5.46,5.69,2.54,0,7.69-1,12.92-8.46ZM306.74,51.56c4.38-1.15,8.54-4.85,8.54-8.84,0-1.61-.85-2.31-1.61-2.31-2.77,0-6.46,5.69-6.92,11.15Z"/>
    <path class="cls-3" d="M342.27,62.33c-2.69,2.69-5.54,4.23-8.84,4.23-6.46,0-9-6.54-9-12.84,0-8.69,3.54-16.77,7.69-16.77,3,0,4.77,1.77,4.77,4.31,0,1.38-.62,1.69-1.62,3.77-1.15,2.46-2.23,5.31-2.23,9.61,0,4.69,2.23,6.31,3.85,6.31,1.31,0,2.61-.92,3.92-2.46-.38-1.62-.62-3.38-.62-5.15,0-7.38,3.08-15.15,7.61-15.15,3.08,0,4.31,2.46,4.31,5.23,0,4.38-2,8.84-3.15,11.38.23,3.15,1.23,6.08,4.15,6.08,4.08,0,7.61-6.15,7.61-12.77,0-3.46-1.69-6.23-3.84-6.54-.54-.08-.85-.23-.85-1.15,0-2.23,2.31-5.08,5.54-5.08,4.38,0,6.61,4.08,6.61,8.61,0,8.92-8.46,22.69-18.3,22.69-3.62,0-6.08-1.69-7.61-4.31Z"/>
  </g>
  <path class="cls-4" d="M17.81,30.22c-1.84.12-2.37-.13-2.32-2.52V11.13c0-1.3,1.05-2.35,2.35-2.35h346.75c1.3,0,2.35,1.05,2.35,2.35s-1.05,2.35-2.35,2.35H20.2v14.22c-.05,2.67-.24,2.46-2.39,2.52Z"/>
  <path class="cls-2" d="M32.25,81.47c-.18-2.49.2-2.21,2.35-2.35h329.97c1.3,0,2.35,1.05,2.35,2.35s-1.05,2.35-2.35,2.35q-243.29.06-327.62,0c-5.52,0-4.57-.36-4.71-2.35Z"/>
</svg>