<?xml version="1.0" encoding="UTF-8"?>
<svg id="Layer_1" xmlns="http://www.w3.org/2000/svg" viewBox="0 0 55.84 60.18">
  <defs>
    <style>
      .cls-1 {
        fill: #5c667b;
      }

      .cls-2 {
        fill: #a0a0c5;
      }
    </style>
  </defs>
  <path class="cls-1" d="M28.28,10.96c.32.03.73,4.72.79,8.26,0,.12.04.24.12.33.81.86,6.01,6.25,5.7,6.71-.12.18-1.58-.55-3.78-2.32-1.38-1.12-2.68-2.33-3.9-3.61-.1-.1-.15-.24-.15-.38.05-3.04.79-8.76,1.21-9h0Z"/>
  <path class="cls-2" d="M49.22,17.03C49.22,7.73,39.8.2,28.52.2S7.83,7.73,7.83,17.03c0,2.92.16,5.6.96,7.92,3.03,14.55,12.14,29.07,18.19,34.25,1.02.87,2.53.81,3.51-.11,5.53-5.12,18.66-24.69,18.78-39.08.15-.97-.05-1.97-.05-2.98ZM28.61,33.52c-7.77,0-14.06-6.3-14.06-14.06s6.3-14.06,14.06-14.06,14.06,6.3,14.06,14.06-6.3,14.06-14.06,14.06Z"/>
</svg>