<?xml version="1.0" encoding="UTF-8"?>
<svg id="lines" xmlns="http://www.w3.org/2000/svg" xmlns:xlink="http://www.w3.org/1999/xlink" viewBox="0 0 369.33 100.43">
  <defs>
    <style>
      .cls-1 {
        fill: #5c667b;
      }

      .cls-2 {
        fill: url(#linear-gradient-2);
      }

      .cls-3 {
        fill: #a0a0c5;
      }

      .cls-4 {
        fill: #303d66;
      }

      .cls-5 {
        fill: url(#linear-gradient);
      }
    </style>
    <linearGradient id="linear-gradient" x1="16.13" y1="24.65" x2="367.59" y2="24.65" gradientUnits="userSpaceOnUse">
      <stop offset=".37" stop-color="#5c667b"/>
      <stop offset=".47" stop-color="#626c80" stop-opacity=".96"/>
      <stop offset=".59" stop-color="#757e8f" stop-opacity=".84"/>
      <stop offset=".71" stop-color="#959ca9" stop-opacity=".65"/>
      <stop offset=".85" stop-color="#c2c5cd" stop-opacity=".37"/>
      <stop offset=".99" stop-color="#fafafb" stop-opacity=".03"/>
      <stop offset="1" stop-color="#fff" stop-opacity="0"/>
    </linearGradient>
    <linearGradient id="linear-gradient-2" x1="32.85" y1="86.64" x2="367.57" y2="86.64" gradientUnits="userSpaceOnUse">
      <stop offset=".31" stop-color="#5c667b"/>
      <stop offset=".45" stop-color="#606a7e" stop-opacity=".97"/>
      <stop offset=".57" stop-color="#6e778a" stop-opacity=".88"/>
      <stop offset=".69" stop-color="#868e9d" stop-opacity=".74"/>
      <stop offset=".8" stop-color="#a8adb8" stop-opacity=".53"/>
      <stop offset=".91" stop-color="#d3d5db" stop-opacity=".27"/>
      <stop offset="1" stop-color="#fff" stop-opacity="0"/>
    </linearGradient>
  </defs>
  <path class="cls-3" d="M37.91,54.52c0-8.37-8.48-15.15-18.63-15.15S.64,46.15.64,54.52c0,2.63.14,5.04.87,7.13,2.72,13.1,10.93,26.18,16.38,30.84.92.79,2.27.73,3.16-.1,4.98-4.61,16.8-22.23,16.91-35.19.13-.88-.05-1.77-.05-2.68ZM19.34,68.94c-6.67.04-11.6-4.88-12.1-13.06-.34-5.49,5.48-11.24,12.15-11.24s12.01,5.74,12.01,11.24-3.56,13-12.06,13.06Z"/>
  <path class="cls-1" d="M19.01,51.53c.2.02.47,3.03.51,5.3,0,.08.02.15.08.21.52.55,3.85,4.01,3.66,4.3-.08.12-1.01-.35-2.42-1.49-.88-.72-1.72-1.49-2.5-2.31-.06-.06-.1-.15-.09-.24.03-1.95.5-5.62.78-5.77h0Z"/>
  <g>
    <path class="cls-4" d="M69.89,46.79c0,2.88-1.44,4.63-3.32,4.63-3.32,0-3.13-3.51-6.26-3.51-2,0-3.76,2-3.76,6.07v8.64c0,5.7,3.07,4.13,3.07,7.14,0,1.44-1.06,1.75-2.88,1.75h-10.14c-1.88,0-3.01-.44-3.01-1.82,0-2.94,3.13-1.38,3.13-7.07v-11.58c0-1.56-.94-2.5-1.94-3.38-.56-.44-1.19-.94-1.19-1.94,0-1.13.56-1.63,2.07-2.32,2.44-1.13,7.2-2.5,8.26-2.57,1.13,0,1.57.75,1.57,2.13v3.07c2.5-3.76,5.76-5.2,8.51-5.2,3.69,0,5.89,2.44,5.89,5.95Z"/>
    <path class="cls-4" d="M101.12,63c-1.19,3.69-6.57,9.14-15.15,9.14s-15.03-6.07-15.03-14.77c0-9.7,7.89-16.53,16.34-16.53,7.89,0,12.08,4.82,12.83,10.14.12.94-.38,1.88-1.44,2.38-6.2,3-10.52,4.82-16.65,7.2,1.31,2.44,3.88,4.63,8.26,4.63,3.63,0,6.51-1.88,8.76-4.01,1.38-1.31,2.69-.13,2.07,1.82ZM80.03,52.48c0,1.31.25,3.01.56,4.01,2.88-1,5.82-2.07,8.58-3.38,1.06-.5,2.13-.88,1.56-2.75-1-3.51-3.76-5.57-6.57-4.82-2.63.63-4.13,3.26-4.13,6.95Z"/>
    <path class="cls-4" d="M140.12,64.13c.81,3.82,3.26,3.26,3.26,5.63,0,1.44-1.13,1.75-2.88,1.75h-9.83c-1.88,0-3.01-.44-3.01-1.82,0-2.19,3.32-2.13,2.44-6.2l-2-9.64c-.75-3.44-2-6.82-5.38-6.76-2.94,0-5.26,2.69-5.26,7.07v8.45c0,5.7,3.07,4.13,3.07,7.14,0,1.44-1.06,1.75-2.88,1.75h-10.14c-1.88,0-3.01-.44-3.01-1.82,0-2.94,3.13-1.38,3.13-7.07v-11.58c0-1.56-.94-2.5-1.94-3.38-.56-.44-1.19-.94-1.19-1.94,0-1.13.56-1.63,2.07-2.32,2.44-1.13,7.2-2.5,8.26-2.57,1.13,0,1.57.75,1.57,2.13v3.07c2.32-3.44,5.88-5.2,9.89-5.2,7.57,0,9.95,5.2,11.58,12.77l2.25,10.52Z"/>
    <path class="cls-4" d="M176,37.77l-.13,23.73c0,4.51,3.63,3.69,3.63,5.57,0,1-.69,1.63-2.25,2.5-2,1-6.07,2.38-7.95,2.38s-2.69-1-2.88-3.88v-.56c-2,2.69-5.07,4.76-9.83,4.57-6.89-.19-12.08-5.51-12.08-13.65,0-11.39,9.01-17.59,15.96-17.59,2.25,0,4.13.44,5.63,1.13v-4.19c0-3.69-2.94-3.63-2.94-5.51,0-.94.56-1.44,2.07-2.13,2.5-1.19,8.2-3.07,9.27-3.07,1.13,0,1.57.75,1.57,2.13l-.06,8.58ZM166.1,59.56v-4.07c-.12-2.63-.5-4.88-1.06-6.26-1.13-2.69-3.07-4.01-5.38-4.01-3.69,0-5.82,3.38-5.82,8.95,0,7.01,3.07,11.77,7.2,11.77,3.13,0,4.76-2.63,5.07-6.39Z"/>
    <path class="cls-4" d="M212.05,63c-1.19,3.69-6.57,9.14-15.15,9.14s-15.03-6.07-15.03-14.77c0-9.7,7.89-16.53,16.34-16.53,7.89,0,12.08,4.82,12.83,10.14.13.94-.38,1.88-1.44,2.38-6.2,3-10.52,4.82-16.65,7.2,1.31,2.44,3.88,4.63,8.26,4.63,3.63,0,6.51-1.88,8.77-4.01,1.38-1.31,2.69-.13,2.07,1.82ZM190.96,52.48c0,1.31.25,3.01.56,4.01,2.88-1,5.82-2.07,8.58-3.38,1.06-.5,2.13-.88,1.57-2.75-1-3.51-3.76-5.57-6.57-4.82-2.63.63-4.13,3.26-4.13,6.95Z"/>
    <path class="cls-4" d="M245.05,62.82c-.25,2.13-.75,3.94-1.31,5.76-.63,1.88-1.38,2.94-3.32,2.94h-23.92c-1.88,0-2.69-1.25-1.5-2.88l16.72-22.66h-3.88c-4.32,0-7.45,2.88-9.64,5.01-.88.81-1.88,1.31-2.75.88-1-.44-.88-1.63-.56-2.88.56-1.75,1.31-3.44,2.19-5.2.88-1.75,1.44-2.32,3.38-2.32h22.73c1.94,0,2.69,1.25,1.5,2.88l-16.72,22.66h5.07c4.32,0,6.82-2.88,8.76-5.51.69-1,1.63-1.69,2.57-1.44,1.06.31.88,1.44.69,2.75Z"/>
  </g>
  <g>
    <path class="cls-3" d="M273.62,53.09c0-3.46-1.23-6.08-3.54-6.54-.46-.08-.85-.38-.85-1.15,0-2,2.23-4.85,5.46-4.85,4.38,0,6.38,3.54,6.38,8.08,0,9.61-11.46,23.15-19.61,23.15-5.77,0-8-6.61-8-12,0-8.54,2.38-18.07,7.31-18.07,2.61,0,4.61,1.61,4.61,4.15,0,1.38-.46,2.46-1.08,4.15-1.08,2.85-2,6.31-2,10,0,4,1.08,6.15,2.69,6.15,3.54,0,8.61-6.84,8.61-13.07Z"/>
    <path class="cls-3" d="M295.84,46.48c0,1.38-.69,2.15-1.85,4.31-2.31,4.38-3.38,8.38-3.38,11,0,2.31,1,3.15,2.08,3.15,1.46,0,3.77-.46,9-7.92.31-.46.77-.69,1.15-.69.54,0,1,.46,1,1.15,0,.38-.08.77-.38,1.31-5.77,10.38-10.92,12.84-14.92,12.84-4.54,0-6.69-3.92-6.69-8.69,0-3.54,1.08-8.46,2.62-12.3,1.92-4.77,4.15-8.77,7-8.77s4.38,2.08,4.38,4.61ZM291.31,33.09c0-3.46,3-6.23,6.61-6.23s5.15,2.61,5.15,4.84c0,3.46-3.23,5.84-6.84,5.84-2.77,0-4.92-1.85-4.92-4.46Z"/>
    <path class="cls-3" d="M325.91,57.01c.31-.46.77-.69,1.15-.69.54,0,1,.46,1,1.15,0,.38-.08.77-.38,1.31-5.77,10.38-13.15,12.84-18.23,12.84s-10.77-3.61-10.77-11c0-9.31,7.92-18.76,16.46-18.76,4.84,0,7.61,3,7.61,6.46,0,5.23-6,10.31-15.23,11.46.46,3.23,2,5.69,5.46,5.69,2.54,0,7.69-1,12.92-8.46ZM307.38,56.7c4.38-1.15,8.54-4.85,8.54-8.84,0-1.61-.85-2.31-1.61-2.31-2.77,0-6.46,5.69-6.92,11.15Z"/>
    <path class="cls-3" d="M342.91,67.47c-2.69,2.69-5.54,4.23-8.84,4.23-6.46,0-9-6.54-9-12.84,0-8.69,3.54-16.77,7.69-16.77,3,0,4.77,1.77,4.77,4.31,0,1.38-.62,1.69-1.62,3.77-1.15,2.46-2.23,5.31-2.23,9.61,0,4.69,2.23,6.31,3.85,6.31,1.31,0,2.61-.92,3.92-2.46-.38-1.61-.62-3.38-.62-5.15,0-7.38,3.08-15.15,7.61-15.15,3.08,0,4.31,2.46,4.31,5.23,0,4.38-2,8.84-3.15,11.38.23,3.15,1.23,6.08,4.15,6.08,4.08,0,7.61-6.15,7.61-12.77,0-3.46-1.69-6.23-3.84-6.54-.54-.08-.85-.23-.85-1.15,0-2.23,2.31-5.08,5.54-5.08,4.38,0,6.61,4.08,6.61,8.61,0,8.92-8.46,22.69-18.3,22.69-3.62,0-6.08-1.69-7.61-4.31Z"/>
  </g>
  <path class="cls-5" d="M18.45,35.36c-1.84.12-2.37-.13-2.32-2.52v-16.57c0-1.3,1.05-2.35,2.35-2.35h346.75c1.3,0,2.35,1.05,2.35,2.35s-1.05,2.35-2.35,2.35H20.84v14.22c-.05,2.67-.24,2.46-2.39,2.52Z"/>
  <path class="cls-2" d="M32.89,86.61c-.18-2.49.2-2.21,2.35-2.35h329.97c1.3,0,2.35,1.05,2.35,2.35s-1.05,2.35-2.35,2.35q-243.29.06-327.62,0c-5.52,0-4.57-.36-4.71-2.35Z"/>
</svg>